<svg width="40" height="40" viewBox="0 0 40 40" fill="none" xmlns="http://www.w3.org/2000/svg">
<g clip-path="url(#clip0)">
<path d="M38.7998 0H1.2007C0.630101 0 0.167664 0.462437 0.167664 1.03304V38.967C0.167664 39.5376 0.630101 40 1.2007 40H13.6998V39.9909C14.2639 39.9844 14.6962 39.6686 14.716 39.1342C14.7673 37.7452 14.7311 36.3532 14.7311 35.0104C13.7244 35.0573 12.7633 35.1845 11.8131 35.1297C9.7173 35.009 8.10684 34.1148 7.27161 32.0626C6.77685 30.8468 6.03133 29.8069 4.87027 29.113C4.65345 28.9833 4.46389 28.7924 4.29798 28.5984C4.08116 28.3455 4.12172 28.0856 4.46431 28.0162C4.80992 27.9459 5.1875 27.8969 5.52833 27.9606C6.86691 28.2118 7.79256 29.0514 8.50111 30.168C9.90215 32.3771 12.0587 33.0533 14.485 32.0332C14.6202 31.9763 14.7922 31.8384 14.8177 31.7125C15.0133 30.7346 15.3788 29.843 16.1153 29.0613C15.2965 28.9096 14.538 28.798 13.7942 28.6255C11.6523 28.1299 9.72808 27.2383 8.32098 25.4674C7.17295 24.0229 6.64798 22.3318 6.40666 20.5321C6.02872 17.7132 6.36701 15.0744 8.30288 12.8218C8.40069 12.708 8.45372 12.4748 8.4102 12.3331C7.92537 10.7489 7.99945 9.17797 8.47998 7.61145C8.73215 6.78875 8.80236 6.74777 9.64189 6.86241C9.69322 6.86931 9.74315 6.88219 9.79406 6.89086C11.4769 7.16929 12.9254 7.98417 14.3523 8.85905C14.5441 8.97672 14.8363 9.04995 15.0471 8.99869C18.4551 8.17169 21.8566 8.17514 25.2643 9.00171C25.4621 9.04953 25.7263 8.98143 25.9154 8.88236C26.6911 8.47682 27.4337 8.00537 28.2194 7.62088C29.1334 7.17401 30.0962 6.83783 31.1326 6.85635C31.314 6.8598 31.5947 7.03303 31.6554 7.19337C32.279 8.84567 32.4104 10.5294 31.9135 12.249C31.8605 12.4326 31.9394 12.6942 32.0381 12.8751C32.5285 13.775 33.2133 14.6055 33.5236 15.56C34.4696 18.4694 34.1249 21.3504 32.8371 24.0848C31.6571 26.5913 29.4687 27.8614 26.8782 28.5165C26.0034 28.7376 25.107 28.872 24.1632 29.0573C25.4 30.3494 25.594 31.9262 25.572 33.5776C25.5492 35.2812 25.5552 36.9852 25.5543 38.6892C25.5539 39.5145 25.9142 39.9705 26.5429 39.9972C26.5425 39.9998 39.8325 39.9998 39.8325 39.9998V1.03304C39.8323 0.462437 39.37 0 38.7998 0Z" fill="#E7E7E7"/>
</g>
<defs>
<clipPath id="clip0">
<rect width="40" height="40" fill="white"/>
</clipPath>
</defs>
</svg>
