<svg width="30" height="30" viewBox="0 0 30 30" fill="none" xmlns="http://www.w3.org/2000/svg">
<g clip-path="url(#clip0)">
<path d="M29.0998 0H0.900525C0.472576 0 0.125748 0.346828 0.125748 0.774778V29.2252C0.125748 29.6532 0.472576 30 0.900525 30H10.2749V29.9932C10.698 29.9883 11.0221 29.7515 11.037 29.3507C11.0755 28.3089 11.0483 27.2649 11.0483 26.2578C10.2933 26.293 9.57249 26.3884 8.85982 26.3473C7.28798 26.2568 6.08013 25.5861 5.4537 24.0469C5.08264 23.1351 4.5235 22.3552 3.6527 21.8348C3.49009 21.7375 3.34791 21.5943 3.22349 21.4488C3.06087 21.2591 3.09129 21.0642 3.34823 21.0122C3.60744 20.9594 3.89063 20.9226 4.14625 20.9704C5.15018 21.1589 5.84442 21.7885 6.37583 22.626C7.42661 24.2828 9.04404 24.79 10.8637 24.0249C10.9652 23.9822 11.0942 23.8788 11.1133 23.7844C11.26 23.051 11.5341 22.3823 12.0865 21.796C11.4724 21.6822 10.9035 21.5985 10.3456 21.4692C8.7392 21.0975 7.29606 20.4287 6.24074 19.1006C5.37971 18.0171 4.98599 16.7489 4.80499 15.3991C4.52154 13.2849 4.77526 11.3058 6.22716 9.61633C6.30052 9.53098 6.34029 9.35611 6.30765 9.2498C5.94403 8.06165 5.99959 6.88348 6.35999 5.70858C6.54911 5.09156 6.60177 5.06082 7.23142 5.1468C7.26992 5.15198 7.30736 5.16165 7.34555 5.16814C8.60769 5.37697 9.69407 5.98813 10.7642 6.64429C10.9081 6.73254 11.1272 6.78746 11.2853 6.74901C13.8413 6.12877 16.3925 6.13136 18.9482 6.75129C19.0965 6.78715 19.2947 6.73608 19.4366 6.66177C20.0184 6.35761 20.5753 6.00402 21.1645 5.71566C21.85 5.38051 22.5721 5.12837 23.3495 5.14226C23.4855 5.14485 23.696 5.27477 23.7415 5.39503C24.2092 6.63425 24.3078 7.89708 23.9351 9.18674C23.8954 9.32442 23.9545 9.52063 24.0286 9.65636C24.3964 10.3313 24.91 10.9541 25.1427 11.67C25.8522 13.852 25.5936 16.0128 24.6278 18.0636C23.7428 19.9435 22.1015 20.896 20.1587 21.3873C19.5025 21.5532 18.8303 21.654 18.1224 21.793C19.05 22.762 19.1955 23.9446 19.179 25.1832C19.1619 26.4609 19.1664 27.7389 19.1657 29.0169C19.1654 29.6359 19.4356 29.9779 19.9072 29.9979C19.9069 29.9998 29.8744 29.9998 29.8744 29.9998V0.774778C29.8743 0.346828 29.5275 0 29.0998 0Z" fill="#E7E7E7"/>
</g>
<defs>
<clipPath id="clip0">
<rect width="30" height="30" fill="white"/>
</clipPath>
</defs>
</svg>
