<svg width="40" height="40" viewBox="0 0 40 40" fill="none" xmlns="http://www.w3.org/2000/svg">
<path d="M39.9705 8.6171C39.9705 8.57139 40.0019 8.5269 39.9998 8.48172L27.7932 20.2435L39.9852 31.6295C39.9924 31.5481 39.9705 31.4661 39.9705 31.3831V8.6171Z" fill="#E7E7E7"/>
<path d="M25.9298 22.0534L20.9467 26.8478C20.6946 27.0904 20.3689 27.2121 20.0431 27.2121C19.724 27.2121 19.4049 27.0956 19.1545 26.8622L14.185 22.2314L1.91333 34.0599C2.21172 34.1671 2.532 34.2503 2.86741 34.2503H37.2189C37.7169 34.2503 38.1841 34.0986 38.5902 33.8723L25.9298 22.0534Z" fill="#E7E7E7"/>
<path d="M20.0289 24.1138L38.6579 6.16865C38.2361 5.91788 37.7452 5.74966 37.2189 5.74966H2.86745C2.18222 5.74966 1.55434 6.01572 1.06531 6.42151L20.0289 24.1138Z" fill="#E7E7E7"/>
<path d="M0 9.05418V31.3827C0 31.639 0.058913 31.8862 0.122866 32.1223L12.2423 20.4517L0 9.05418Z" fill="#E7E7E7"/>
</svg>
