<svg width="90" height="30" viewBox="0 0 90 30" fill="none" xmlns="http://www.w3.org/2000/svg">
<path d="M10.875 12.034C9.63655 5.27999 7.05532 3.48199 6.39687 2.21099C6.12535 1.65109 5.88482 1.06909 5.67694 0.468994C5.64215 1.06899 5.57825 1.44699 5.16571 1.90199C4.33738 2.81499 0.819439 6.35899 0.523379 14.033C0.247541 21.188 4.77824 25.6 5.37683 26.056C5.8371 26.336 6.39767 26.062 6.67109 25.805C8.85514 23.952 11.8392 19.012 10.8774 12.034" fill="#E7E7E7"/>
<path d="M5.86459 22.246C5.75053 24.017 5.66883 25.046 5.37924 26.058C5.37924 26.058 5.56934 27.744 5.70281 29.53H6.17521C6.28789 28.2723 6.45994 27.0239 6.69048 25.791C6.07895 25.419 5.88805 23.8 5.86459 22.246Z" fill="#E7E7E7"/>
<path d="M6.6897 25.792C6.07169 25.439 5.89292 23.786 5.86542 22.246C6.01825 19.7057 6.06281 17.1571 5.99889 14.611C5.96653 13.275 6.01426 2.237 5.73276 0.621002C5.92532 1.16832 6.14718 1.69917 6.39687 2.21C7.05532 3.482 9.63736 5.28 10.875 12.034C11.8392 19 8.87132 23.927 6.6897 25.792Z" fill="#E7E7E7"/>
<path d="M88.1468 23.35C87.8821 23.35 87.6235 23.2532 87.4032 23.0719C87.1829 22.8906 87.011 22.6329 86.9089 22.3311C86.8068 22.0292 86.7791 21.6969 86.8294 21.3757C86.8797 21.0545 87.0057 20.7589 87.1915 20.526C87.3773 20.2931 87.6147 20.1333 87.8737 20.0667C88.1328 20.0001 88.402 20.0297 88.6475 20.1518C88.893 20.2738 89.1039 20.4829 89.2536 20.7526C89.4032 21.0224 89.485 21.3409 89.4887 21.668C89.4935 21.8885 89.4622 22.108 89.3967 22.3133C89.3312 22.5185 89.2329 22.7053 89.1075 22.8624C88.9822 23.0195 88.8325 23.1436 88.6674 23.2274C88.5023 23.3112 88.3252 23.3529 88.1468 23.35ZM88.1468 20.182C87.905 20.18 87.6682 20.2668 87.4663 20.4313C87.2645 20.5959 87.1067 20.8307 87.0129 21.1062C86.9191 21.3818 86.8936 21.6855 86.9395 21.9789C86.9855 22.2724 87.1008 22.5424 87.271 22.7547C87.4412 22.967 87.6585 23.1122 87.8954 23.1717C88.1324 23.2312 88.3783 23.2025 88.602 23.0891C88.8257 22.9757 89.0171 22.7828 89.1521 22.5348C89.2871 22.2868 89.3594 21.9949 89.3601 21.696C89.3632 21.4973 89.3341 21.2998 89.2744 21.1153C89.2146 20.9308 89.1256 20.7629 89.0124 20.6217C88.8993 20.4806 88.7644 20.3689 88.6157 20.2933C88.467 20.2178 88.3075 20.1799 88.1468 20.182ZM88.4703 22.74L88.1241 21.817H87.8451V22.74H87.642V20.64H88.1427C88.5156 20.64 88.6709 20.84 88.6709 21.227C88.6709 21.535 88.5536 21.727 88.3352 21.786L88.6928 22.737L88.4703 22.74ZM87.8531 21.6H88.1468C88.3846 21.6 88.4752 21.5 88.4752 21.232C88.4752 20.964 88.3886 20.873 88.1209 20.873H87.8531V21.6Z" fill="#E7E7E7"/>
<path d="M68.174 21.838C68.5372 22.197 69.2628 22.345 69.9026 22.345C70.7318 22.345 71.5447 22.155 72.3391 21.268C73.148 20.359 73.7045 18.968 73.7045 16.747C73.7045 14.613 73.0477 12.881 71.7 11.867C70.9397 11.276 69.9544 11.043 68.8308 11.043C68.5073 11.043 68.174 11.064 67.9847 11.17C67.9071 11.2457 67.8522 11.3513 67.8286 11.47C67.7946 11.85 67.7946 14.744 67.7946 16.455C67.7946 18.209 67.7946 20.655 67.8286 20.955C67.8464 21.209 67.9499 21.655 68.174 21.842V21.838ZM64.7248 10.093C65.0185 10.093 66.1348 10.156 66.6541 10.156C67.6248 10.156 68.2953 10.093 70.1097 10.093C71.6305 10.093 72.9102 10.6 73.825 11.571C74.9316 12.755 75.5237 14.402 75.5237 16.409C75.5237 19.261 74.4721 20.909 73.4149 21.838C72.3633 22.81 70.9955 23.359 69.0468 23.359C68.0098 23.359 66.2294 23.317 64.7434 23.296H64.7127C64.6431 23.127 64.8397 22.468 64.961 22.451C65.3655 22.395 65.4723 22.375 65.6583 22.28C65.9722 22.121 66.0458 21.923 66.0806 21.226C66.1323 19.916 66.1153 18.353 66.1153 16.578C66.1153 15.311 66.1323 12.839 66.0984 12.057C66.0458 11.403 65.8225 11.234 65.3703 11.107C65.0497 11.0228 64.7257 10.9594 64.3997 10.917C64.3657 10.79 64.631 10.217 64.7176 10.093" fill="#E7E7E7"/>
<path d="M79.807 11.165C79.7382 11.186 79.6516 11.398 79.6516 11.503C79.6338 12.264 79.6169 14.249 79.6169 15.622C79.6212 15.6483 79.6318 15.6723 79.6472 15.6912C79.6626 15.71 79.6821 15.7228 79.7034 15.728C79.9275 15.749 80.4808 15.771 80.9475 15.771C81.6044 15.771 81.9845 15.665 82.1916 15.538C82.7449 15.2 83.0005 14.46 83.0005 13.658C83.0005 11.82 81.9635 11.123 80.4258 11.123C80.2179 11.1198 80.0101 11.1338 79.8037 11.165H79.807ZM83.7269 19.615C83.7269 17.756 82.6204 16.7 80.5981 16.7C80.5123 16.7 79.8701 16.679 79.7172 16.721C79.6654 16.742 79.6136 16.784 79.6136 16.827C79.6136 18.158 79.5958 20.291 79.6484 21.136C79.6832 21.495 79.8911 22.002 80.1491 22.15C80.4258 22.34 81.0478 22.382 81.4798 22.382C82.6721 22.382 83.7269 21.559 83.7269 19.615ZM76.6846 10.13C76.8407 10.13 77.3001 10.193 78.4755 10.193C79.5813 10.193 80.48 10.151 81.5494 10.151C82.88 10.151 84.7114 10.743 84.7114 13.193C84.7114 14.393 84.0206 15.369 83.1219 15.834C83.0701 15.855 83.0701 15.897 83.1219 15.918C84.4008 16.318 85.5235 17.291 85.5235 19.15C85.5235 20.967 84.6078 22.108 83.2772 22.826C82.4683 23.27 81.4628 23.417 80.446 23.417C79.6686 23.417 77.5849 23.317 76.4265 23.333C76.3052 23.27 76.5373 22.593 76.6409 22.488C76.9063 22.4779 77.1696 22.4269 77.4247 22.336C77.8389 22.21 77.8882 22.045 77.94 21.284C77.9748 20.629 77.9748 18.284 77.9748 16.615C77.9748 14.333 77.9926 12.792 77.9748 12.031C77.9578 11.44 77.7847 11.249 77.4563 11.144C77.1974 11.08 76.7654 11.017 76.42 10.954C76.3335 10.848 76.5996 10.214 76.6854 10.13" fill="#E7E7E7"/>
<path d="M14.7019 23.35C14.6574 23.2148 14.6394 23.0685 14.6493 22.923C14.6455 22.8239 14.6636 22.7253 14.7019 22.638C14.9254 22.5982 15.1469 22.5424 15.3652 22.471C15.671 22.377 15.7858 22.171 15.8036 21.689C15.8538 20.55 15.857 18.413 15.8392 16.911V16.867C15.8392 16.705 15.8392 16.485 15.6774 16.33C15.3931 16.1095 15.0844 15.941 14.761 15.83C14.6162 15.777 14.5361 15.683 14.5401 15.573C14.5442 15.463 14.6356 15.333 14.8241 15.287C15.3248 15.224 16.6368 14.837 17.1521 14.543C17.2051 14.6285 17.2297 14.7358 17.2208 14.843C17.2208 14.909 17.2128 14.979 17.2071 15.051C17.1925 15.263 17.1764 15.504 17.1764 15.744C17.1795 15.7732 17.1892 15.8006 17.2043 15.8234C17.2194 15.8461 17.2394 15.8631 17.2619 15.8726C17.2845 15.882 17.3087 15.8835 17.3319 15.8769C17.355 15.8702 17.3763 15.8557 17.3931 15.835C18.3743 14.884 19.2536 14.545 19.7042 14.545C20.446 14.545 21.0235 14.983 21.4708 15.885C21.4811 15.9068 21.4957 15.9249 21.5133 15.9377C21.5308 15.9505 21.5508 15.9575 21.5711 15.958C21.5897 15.9578 21.6079 15.952 21.6242 15.9412C21.6406 15.9304 21.6545 15.9149 21.665 15.896C22.5669 15.05 23.4608 14.545 24.0593 14.545C25.4733 14.545 26.3186 15.854 26.3186 18.045C26.3186 18.675 26.3138 19.474 26.3089 20.219C26.3049 20.873 26.3008 21.486 26.3008 21.91C26.3008 22.01 26.4125 22.298 26.5799 22.355C26.787 22.48 27.0855 22.544 27.4632 22.624H27.4778C27.5061 22.75 27.4462 23.239 27.3888 23.339C27.295 23.339 27.1655 23.329 27.0038 23.319C26.7101 23.301 26.3073 23.276 25.8389 23.276C24.899 23.276 24.408 23.298 23.9388 23.336C23.9032 23.191 23.8911 22.723 23.934 22.625C24.1283 22.5874 24.3206 22.5357 24.5099 22.47C24.8092 22.348 24.8958 22.18 24.9144 21.689C24.9216 21.34 24.9758 18.265 24.8796 17.535C24.7906 16.778 24.3295 15.892 23.3208 15.892C22.9463 15.892 22.342 16.085 21.7661 16.625C21.7304 16.6751 21.7103 16.7393 21.7095 16.806V16.821C21.7774 17.215 21.7774 17.675 21.7774 18.37C21.7774 18.77 21.7774 19.187 21.7734 19.604C21.7693 20.452 21.7661 21.252 21.7774 21.857C21.7774 22.269 21.9788 22.368 22.1414 22.447C22.2296 22.471 22.2992 22.492 22.3695 22.512C22.5046 22.553 22.6454 22.595 22.8549 22.636C22.8859 22.8117 22.8831 22.9939 22.8468 23.168C22.8382 23.2333 22.8174 23.2953 22.7861 23.349C22.2636 23.327 21.7273 23.308 20.9531 23.308C20.7186 23.308 20.3359 23.32 19.9978 23.331C19.7236 23.34 19.4648 23.349 19.3175 23.35C19.2777 23.2339 19.26 23.108 19.2658 22.982C19.2575 22.8633 19.2763 22.7442 19.32 22.638L19.5278 22.591C19.709 22.551 19.866 22.517 20.0132 22.471C20.2688 22.371 20.3651 22.199 20.3837 21.796C20.4338 20.856 20.4726 18.147 20.3651 17.469C20.1823 16.381 19.6815 15.829 18.8759 15.829C18.4043 15.829 17.8081 16.11 17.3211 16.561C17.2743 16.6174 17.2374 16.6851 17.2128 16.76C17.1881 16.8349 17.1763 16.9152 17.178 16.996C17.178 17.319 17.178 17.703 17.178 18.115C17.178 19.475 17.1707 21.168 17.1974 21.9C17.2136 22.126 17.2783 22.394 17.6204 22.492C17.6957 22.519 17.8251 22.545 17.9756 22.576C18.0621 22.594 18.1567 22.613 18.2546 22.635C18.2857 22.8745 18.2699 23.1197 18.2085 23.35C18.0581 23.35 17.8728 23.338 17.6609 23.327C17.3373 23.309 16.9329 23.287 16.4758 23.287C15.9355 23.287 15.5593 23.309 15.2576 23.327C15.0546 23.339 14.8791 23.349 14.7035 23.35" fill="#E7E7E7"/>
<path d="M32.049 15.449C31.757 15.4415 31.4698 15.5414 31.2239 15.736C30.6237 16.187 30.3179 17.088 30.3179 18.412C30.3179 20.89 31.3218 22.621 32.7592 22.621C33.1446 22.6361 33.5205 22.4716 33.8124 22.16C34.2541 21.715 34.4887 20.805 34.4887 19.531C34.4887 17.09 33.5074 15.449 32.0474 15.449H32.049ZM32.324 23.54C29.7274 23.54 28.8028 21.185 28.8028 18.982C28.8028 17.443 29.3116 16.24 30.3155 15.405C31.0186 14.8669 31.8256 14.572 32.6524 14.551C34.6335 14.551 36.0175 16.312 36.0175 18.835C36.0175 20.549 35.465 21.903 34.4191 22.749C33.9168 23.129 33.0439 23.54 32.324 23.54Z" fill="#E7E7E7"/>
<path d="M58.4841 15.449C58.1916 15.4408 57.9037 15.5407 57.6574 15.736C57.0572 16.187 56.7514 17.088 56.7514 18.412C56.7514 20.89 57.7553 22.621 59.1927 22.621C59.5792 22.6371 59.9565 22.4725 60.2491 22.16C60.6908 21.715 60.9246 20.805 60.9246 19.531C60.9246 17.09 59.9442 15.449 58.4841 15.449ZM58.7607 23.54C56.1641 23.54 55.2396 21.185 55.2396 18.983C55.2396 17.442 55.7484 16.24 56.753 15.405C57.4557 14.8666 58.2626 14.5716 59.0892 14.551C61.0702 14.551 62.4542 16.313 62.4542 18.834C62.4542 20.55 61.9017 21.903 60.8558 22.748C60.3535 23.129 59.4807 23.54 58.7607 23.54Z" fill="#E7E7E7"/>
<path d="M49.7414 15.365C48.9414 15.365 48.4237 16.146 48.4237 17.355C48.4237 18.564 48.8694 20.001 50.1224 20.001C50.3376 20.001 50.7275 19.883 50.9208 19.62C51.2121 19.289 51.4062 18.605 51.4062 17.883C51.4062 16.306 50.7849 15.365 49.7455 15.365H49.7414ZM49.6419 23.709C49.4159 23.7059 49.1931 23.7748 48.9948 23.909C48.3614 24.409 48.0678 24.909 48.0678 25.49C48.0678 26.034 48.2385 26.467 48.6057 26.851C49.0506 27.317 49.6508 27.544 50.4395 27.544C51.9919 27.544 52.6875 26.512 52.6875 25.49C52.6875 24.778 52.3987 24.301 51.8042 24.031C51.3463 23.824 50.5811 23.71 49.6444 23.71L49.6419 23.709ZM49.7479 28.61C48.816 28.61 48.1446 28.367 47.5711 27.821C47.013 27.289 46.7622 26.499 46.7622 25.953C46.7682 25.6011 46.8768 25.2638 47.068 25.003C47.2298 24.775 47.6059 24.348 48.4755 23.609C48.489 23.6019 48.5005 23.5901 48.5085 23.5749C48.5166 23.5598 48.5208 23.5421 48.5208 23.524C48.5211 23.5038 48.5158 23.4841 48.5058 23.4681C48.4958 23.4521 48.4817 23.4408 48.4658 23.436C47.7499 23.097 47.5339 22.536 47.4684 22.236C47.4684 22.225 47.4684 22.208 47.4611 22.189C47.4409 22.071 47.4215 21.959 47.5517 21.844C47.652 21.756 47.8122 21.638 47.9837 21.513C48.2258 21.3473 48.458 21.1605 48.6785 20.954C48.6904 20.9382 48.6992 20.9194 48.7042 20.8988C48.7092 20.8782 48.7104 20.8564 48.7076 20.8352C48.7048 20.8139 48.6981 20.7938 48.688 20.7762C48.6779 20.7587 48.6647 20.7443 48.6494 20.734C47.5897 20.294 47.0558 19.321 47.0558 17.834C47.0526 17.3703 47.1399 16.9125 47.3103 16.4994C47.4806 16.0863 47.7291 15.7301 48.0346 15.461C48.4609 15.044 49.5311 14.543 50.2244 14.543H50.2648C50.9775 14.564 51.3795 14.749 51.936 15.003C52.2526 15.1445 52.5881 15.2103 52.9245 15.197C53.5142 15.197 53.7723 14.966 53.9939 14.697C54.0299 14.8182 54.049 14.946 54.0505 15.075C54.0641 15.3825 53.9965 15.6871 53.858 15.943C53.7375 16.15 53.4536 16.3 53.1939 16.3C53.1672 16.3 53.1413 16.3 53.113 16.295C52.9764 16.2831 52.841 16.2553 52.7085 16.212L52.6422 16.241C52.6212 16.279 52.6349 16.321 52.6519 16.375C52.6561 16.3856 52.6593 16.3966 52.6616 16.408C52.709 16.6749 52.7411 16.9456 52.7579 17.218C52.7579 18.773 52.262 19.45 51.7257 19.952C51.2072 20.433 50.5914 20.7278 49.9461 20.804C49.9324 20.804 49.8652 20.811 49.739 20.825C49.6581 20.834 49.553 20.846 49.5376 20.846H49.5222C49.4057 20.886 49.1016 21.065 49.1016 21.398C49.1016 21.674 49.2391 22.017 49.8968 22.079L50.3222 22.116C51.1894 22.191 52.2725 22.284 52.7822 22.497C53.1202 22.644 53.4122 22.9189 53.6165 23.2829C53.8209 23.6468 53.9272 24.0811 53.9203 24.524C53.9203 25.919 53.1179 27.231 51.7743 28.033C51.1406 28.4071 50.4469 28.5996 49.7447 28.596" fill="#E7E7E7"/>
<path d="M45.7729 22.606C45.3927 22.543 45.1153 22.479 44.7877 22.289C44.7234 22.2067 44.681 22.102 44.6663 21.989C44.6315 21.334 44.6315 19.433 44.6315 18.189C44.6315 17.174 44.494 16.289 44.1462 15.654C43.7312 14.935 43.144 14.513 42.3836 14.513C41.7098 14.513 40.8111 15.083 40.0685 15.865C40.0507 15.886 39.9366 16.02 39.9391 15.812C39.9415 15.604 39.9674 15.182 39.9835 14.912C39.9907 14.8403 39.9842 14.7675 39.9646 14.6994C39.9449 14.6313 39.9126 14.5699 39.8703 14.52C39.385 14.82 38.0236 15.22 37.5196 15.281C37.1524 15.369 37.0593 15.806 37.4517 15.957H37.4573C37.7714 16.0641 38.0711 16.2271 38.3471 16.441C38.5024 16.589 38.4854 16.8 38.4854 16.969C38.5024 18.384 38.5024 20.56 38.4507 21.743C38.4337 22.208 38.3293 22.377 38.0527 22.462L38.0786 22.451C37.8679 22.5163 37.6542 22.5657 37.4387 22.599C37.3522 22.704 37.3522 23.317 37.4387 23.444C37.6118 23.444 38.4903 23.381 39.2183 23.381C40.2197 23.381 40.7383 23.444 40.9979 23.444C41.1023 23.296 41.1362 22.726 41.0675 22.599C40.8282 22.5856 40.5906 22.5431 40.3581 22.472C40.0822 22.388 40.0127 22.218 39.9957 21.839C39.9617 20.845 39.9617 18.733 39.9617 17.296C39.9617 16.896 40.0475 16.705 40.151 16.596C40.4964 16.216 41.0675 15.963 41.5682 15.963C42.0535 15.963 42.3771 16.153 42.6198 16.406C42.9024 16.7109 43.0796 17.1383 43.1148 17.6C43.1836 18.4 43.1658 20.009 43.1658 21.4C43.1658 22.161 43.1148 22.352 42.89 22.436C42.7864 22.499 42.5098 22.563 42.1814 22.605C42.0778 22.732 42.1118 23.323 42.1814 23.45C42.6303 23.45 43.152 23.387 43.9092 23.387C44.8597 23.387 45.4647 23.45 45.7066 23.45C45.8101 23.302 45.8449 22.75 45.7761 22.605" fill="#E7E7E7"/>
</svg>
