<svg width="40" height="40" viewBox="0 0 45 46" fill="none" xmlns="http://www.w3.org/2000/svg">
<path d="M34.3726 6H11.6275C6.86438 6 3 9.86438 3 14.6275V37.3726C3 42.1356 6.86438 46 11.6275 46H34.3726C39.1356 46 43 42.1356 43 37.3726V14.6275C43 9.86438 39.1356 6 34.3726 6ZM35.3611 35.8693C34.7239 36.5474 34.0131 37.1438 33.4167 37.8546C32.5016 38.8513 31.3905 39.2026 30.0833 39.1291C28.2533 39.0065 26.5458 38.3775 24.8791 37.5768C21.1863 35.7876 18.0082 33.2876 15.3529 30.1095C13.4085 27.7647 11.7827 25.2647 10.7042 22.3644C10.1895 20.9755 9.83007 19.5458 9.95261 18.0752C10.0343 17.1601 10.3856 16.3676 11.0637 15.6895C11.7745 14.9788 12.4935 14.2598 13.2042 13.549C14.1601 12.634 15.3448 12.634 16.2598 13.549C16.8562 14.1046 17.4118 14.701 18.0082 15.2974C18.5637 15.8529 19.1193 16.4085 19.7157 17.0049C20.7043 17.9935 20.7043 19.1454 19.7157 20.1422C19.0049 20.8529 18.3268 21.5719 17.5752 22.25C17.3791 22.4461 17.3791 22.5686 17.4526 22.8056C17.9265 23.9575 18.6046 24.9461 19.3562 25.902C20.9085 27.8056 22.6487 29.4722 24.7157 30.7876C25.1487 31.0654 25.6716 31.2614 26.1046 31.5392C26.3415 31.6618 26.5049 31.6209 26.701 31.4167C27.4118 30.7059 28.1307 29.9869 28.8415 29.2761C29.7974 28.3203 30.982 28.3203 31.8971 29.2761C33.049 30.4281 34.201 31.5801 35.3529 32.732C36.3088 33.6797 36.3088 34.8726 35.3611 35.8693Z" fill="#E7E7E7"/>
</svg>
