<svg width="70" height="60" viewBox="0 0 70 60" fill="none" xmlns="http://www.w3.org/2000/svg">
<path d="M34.4954 26.4019C31.9831 26.4019 30.1687 27.8099 30.1687 29.9172C30.1687 32.0246 32.2086 33.4326 34.7208 33.4326C36.2454 33.4326 37.5767 32.9172 38.4141 32.0522L36.6748 31.1872C36.2132 31.6197 35.5153 31.8681 34.7316 31.8681C33.6365 31.8681 32.7132 31.3804 32.3696 30.5982H38.7576C38.8113 30.3773 38.8328 30.1565 38.8328 29.9172C38.8221 27.8007 37.0184 26.4019 34.4954 26.4019ZM32.3374 29.227C32.6273 28.4448 33.4003 27.9571 34.4954 27.9571C35.5905 27.9571 36.3635 28.4448 36.6534 29.227H32.3374ZM59.0276 26.4019C56.5153 26.4019 54.7009 27.8099 54.7009 29.9172C54.7009 32.0246 56.7408 33.4326 59.2531 33.4326C60.7776 33.4326 62.1089 32.9172 62.9463 32.0522L61.207 31.1872C60.7454 31.6197 60.0475 31.8681 59.2638 31.8681C58.1687 31.8681 57.2454 31.3804 56.9018 30.5982H63.2899C63.3435 30.3773 63.365 30.1565 63.365 29.9172C63.365 27.8007 61.5506 26.4019 59.0276 26.4019ZM56.8803 29.227C57.1702 28.4448 57.9432 27.9571 59.0383 27.9571C60.1334 27.9571 60.9064 28.4448 61.1963 29.227H56.8803ZM47.9908 29.9172C47.9908 31.0859 48.8819 31.8681 50.2669 31.8681C51.2009 31.8681 51.9095 31.5 52.2745 30.9111L54.0245 31.7761C53.3052 32.8068 51.9417 33.4326 50.2669 33.4326C47.7438 33.4326 45.9402 32.0246 45.9402 29.9172C45.9402 27.8099 47.7546 26.4019 50.2669 26.4019C51.9417 26.4019 53.2945 27.0276 54.0245 28.0583L52.2745 28.9233C51.9095 28.3252 51.2116 27.9663 50.2669 27.9663C48.8819 27.9571 47.9908 28.7393 47.9908 29.9172ZM66.7791 24.2485V33.2301H64.7285V24.2485H66.7791ZM10.7791 23.273L19.1963 35.77H2.36194L10.7791 23.273ZM31.8328 24.2485L25.5199 33.6258L19.207 24.2485H21.5797L25.5307 30.1105L29.4816 24.2485H31.8328ZM45.253 26.5951V28.4908C45.0276 28.4356 44.7807 28.3988 44.523 28.3988C43.2024 28.3988 42.2469 29.181 42.2469 30.3497V33.2393H40.1963V26.5951H42.2469V28.3896C42.2469 27.3957 43.5889 26.5951 45.253 26.5951Z" fill="#E7E7E7"/>
</svg>
